<svg width="34" height="20" viewBox="0 0 34 20" fill="none" xmlns="http://www.w3.org/2000/svg">
<path d="M29.7566 14.7835V14.4802H29.6774L29.5865 14.689L29.4965 14.4802H29.4173V14.7835H29.4731V14.5549L29.5577 14.7529H29.6162L29.7008 14.5549V14.7835H29.7566ZM29.2571 14.7835V14.5315H29.3579V14.4811H29.0996V14.5324H29.2013V14.7844H29.2562L29.2571 14.7835Z" fill="#F79410"/>
<path d="M20.8081 16.0857H13.9951V3.79175H20.8081V16.0857Z" fill="#FF5F00"/>
<path d="M14.4274 9.93696C14.4258 8.75416 14.6926 7.58642 15.2077 6.52166C15.7227 5.4569 16.4727 4.52289 17.401 3.78996C16.032 2.7055 14.3361 2.11642 12.5896 2.11866C8.28941 2.11866 4.80371 5.61966 4.80371 9.93786C4.80371 14.2561 8.28941 17.7571 12.5887 17.7571C14.3356 17.7596 16.0318 17.1705 17.401 16.0858C16.4725 15.3527 15.7225 14.4186 15.2075 13.3537C14.6924 12.2887 14.4257 11.1199 14.4274 9.93696Z" fill="#EB001B"/>
<path d="M29.9996 9.93778C29.9996 14.2569 26.5139 17.7579 22.2146 17.7579C20.4673 17.7601 18.7708 17.1707 17.4014 16.0857C18.3299 15.3529 19.0801 14.4189 19.5953 13.3541C20.1106 12.2894 20.3774 11.1216 20.3759 9.93868C20.3777 8.7555 20.111 7.58733 19.5957 6.52222C19.0805 5.45712 18.3302 4.52287 17.4014 3.78988C18.7706 2.70503 20.4668 2.11564 22.2137 2.11768C26.5139 2.11768 29.9996 5.61958 29.9996 9.93778Z" fill="#F79E1B"/>
</svg>
