<svg width="34" height="20" viewBox="0 0 34 20" fill="none" xmlns="http://www.w3.org/2000/svg">
<path d="M15.3162 10.0269C15.3162 10.0134 15.3162 10.0135 15.3162 9.99999C15.3162 9.07035 16.0707 8.32935 16.9869 8.32935C17.9165 8.32935 18.6575 9.08382 18.6575 9.99999C18.6575 10.9162 17.9165 11.6706 17.0003 11.6706V13.9341C19.1695 13.9341 20.921 12.1692 20.921 9.99999C20.921 7.83083 19.156 6.06583 16.9869 6.06583C14.8177 6.06583 13.0527 7.83083 13.0527 9.99999C13.0527 10.0135 13.0527 10.0134 13.0527 10.0269H15.3162Z" fill="#FBC709"/>
<path d="M22.7799 7.1572C23.1976 8.01948 23.4401 8.97608 23.4401 10C23.4401 13.5704 20.5434 16.4536 16.9865 16.4536C13.4162 16.4536 10.5329 13.5569 10.5329 10C10.5329 6.5644 13.2275 3.74854 16.6093 3.54645L18.226 1.08084C17.8219 1.02695 17.4177 0.99999 17 0.99999C12.0284 0.99999 8 5.02847 8 10C8 14.9716 12.0284 19 17 19C21.9716 19 26 14.9716 26 10C26 8.05991 25.3802 6.26798 24.3428 4.79942L22.7799 7.1572Z" fill="#1A468E"/>
</svg>
