<svg width="34" height="20" viewBox="0 0 34 20" fill="none" xmlns="http://www.w3.org/2000/svg">
<path d="M13.7627 14.1122H11.3763L12.8687 4.88577H15.2542L13.7627 14.1122ZM22.4105 5.11092C21.728 4.84822 21.0025 4.71516 20.2711 4.71857C17.9151 4.71857 16.2555 5.97542 16.246 7.77092C16.226 9.09617 17.4335 9.83242 18.336 10.2742C19.2594 10.7254 19.5729 11.0209 19.5729 11.4237C19.5634 12.0412 18.8271 12.3262 18.1403 12.3262C17.1884 12.3262 16.6773 12.1789 15.9021 11.835L15.5886 11.6878L15.2542 13.7588C15.8137 14.0134 16.8445 14.2404 17.9142 14.2499C20.4184 14.2499 22.0476 13.013 22.0666 11.0988C22.0761 10.049 21.4396 9.24437 20.064 8.58602C19.2299 8.16422 18.7188 7.87922 18.7188 7.44792C18.7283 7.05462 19.1511 6.65277 20.0935 6.65277C20.7047 6.63507 21.3121 6.75588 21.87 7.00617L22.0856 7.10402L22.4105 5.11092ZM25.5816 10.8442L26.5335 8.26207C26.524 8.28107 26.7302 7.72247 26.847 7.37857L27.0142 8.17372C27.0142 8.17372 27.4664 10.3825 27.5643 10.8432H25.5816V10.8442ZM28.5266 4.88577H26.6808C26.1108 4.88577 25.6795 5.05297 25.4334 5.65147L21.8899 14.1122H24.3932L24.8938 12.728H27.9566C28.026 13.052 28.2416 14.1122 28.2416 14.1122H30.4504L28.5266 4.88577ZM9.38414 4.88577L7.04714 11.1776L6.79254 9.90177C6.36029 8.42927 5.00654 6.82947 3.49414 6.03432L5.63449 14.1027H8.15674L11.9064 4.88577H9.38414Z" fill="#00579F"/>
<path d="M4.8779 4.88574H1.0399L1 5.07289C3.9944 5.83859 5.97705 7.68444 6.79215 9.90269L5.9571 5.66189C5.8203 5.07289 5.39755 4.90569 4.8779 4.88574Z" fill="#FAA61A"/>
</svg>
